<svg xmlns="http://www.w3.org/2000/svg" viewBox="0 0 320.67 299.88"><defs><style>.cls-1,.cls-17,.cls-2{fill:#34b77e;}.cls-1,.cls-2{stroke:#34b77e;}.cls-1,.cls-18,.cls-19,.cls-2,.cls-20,.cls-21,.cls-22{stroke-linecap:round;stroke-linejoin:round;}.cls-2{opacity:0.3;}.cls-3{fill:#2c1715;}.cls-4{fill:#231f20;}.cls-5{fill:#4c6040;}.cls-6{fill:#153a0c;}.cls-7{fill:#f68d7a;}.cls-8{fill:#1c1e3b;}.cls-9{fill:#fa8c76;}.cls-10{fill:#1c203b;}.cls-11{fill:#0dbc3f;}.cls-12{fill:#03aa4b;}.cls-13{fill:#087735;}.cls-14{fill:#21bf21;}.cls-15{fill:#b79d8b;}.cls-16{fill:#542121;}.cls-18,.cls-19,.cls-20,.cls-21,.cls-22{fill:none;stroke:#06f934;}.cls-18{stroke-width:0.76px;}.cls-19{stroke-width:0.69px;}.cls-20{stroke-width:0.78px;}.cls-21{stroke-width:0.77px;}.cls-22{stroke-width:0.9px;}.cls-23{fill:#87e899;}.cls-24{font-size:11.08px;}.cls-24,.cls-25{fill:#fff;font-family:Jellee-Roman, Jellee Roman;}.cls-25{font-size:12.49px;letter-spacing:-0.1em;}</style></defs><g id="Layer_2" data-name="Layer 2"><g id="OBJECTS"><rect class="cls-1" x="252.02" y="108.18" width="54.31"/><path class="cls-2" d="M295.26,148.36c7.2,28.76,12.14,48.47,3.43,70.06-31.5,78.11-203.93,87.49-240.92,39.31a29.67,29.67,0,0,1-6.22-12.23c-7.18-32.65,59.44-47.33,74.36-96.71C144,89.05,91.28,33.94,116.45,8.67c13.3-13.34,39.2-7.19,55-3.44C239.23,21.32,281.1,91.89,295.26,148.36Z"/><rect class="cls-3" x="137.62" y="151" width="45.51" height="2.94"/><polygon class="cls-3" points="170.65 71.15 165.69 136.73 260.53 139.08 264.71 72.19 170.65 71.15"/><polygon class="cls-3" points="204.09 130.46 201.74 150.84 192.07 152.41 192.07 155.02 219.25 155.02 220.03 126.8 204.09 130.46"/><polygon class="cls-4" points="172.48 74.28 257.66 74.81 253.74 134.9 168.82 134.9 172.48 74.28"/><polygon class="cls-5" points="41.25 151.02 41.25 161.33 221.63 163.95 221.78 154.89 41.25 151.02"/><path class="cls-6" d="M221.44,154.89h85.33v9H221.44Z"/><polygon class="cls-6" points="54.59 160.21 29.57 277.12 33.66 277.12 62.25 159.19 54.59 160.21"/><polygon class="cls-6" points="231.74 160.21 256.76 277.12 252.67 277.12 224.08 159.19 231.74 160.21"/><polygon class="cls-6" points="293.64 160.12 320.67 266.64 316.58 266.64 285.99 159.19 293.64 160.12"/><path class="cls-7" d="M135.26,79.38c.66,1.8,2.21,3.11,3.16,4.77-.27,1-1.7.95-2.34,1.71a2.39,2.39,0,0,0-.43,1.08,40.74,40.74,0,0,1-.76,4.68c-.48,1.51-1.66,3-3.25,3.08s-3.78-1.27-5,0a3.11,3.11,0,0,0-.6,1.92l-.45,5.8a2.41,2.41,0,0,1-2.8,2.68c-3.3.28-6.62.41-9.93.37,1.15-4.34-.33-8.89-.73-13.36a28,28,0,0,1,5.13-18.69c1.87-2.59,4.33-4.93,7.4-5.8a7.81,7.81,0,0,1,8.4,2.6C135.08,73,134.17,76.36,135.26,79.38Z"/><path class="cls-8" d="M125.1,83.66c0,2-1.46,3.78-1.72,5.75a6.84,6.84,0,0,1-1.51,4,6.24,6.24,0,0,1-2.44,1.39,24.84,24.84,0,0,1-6.59,1.4,2.94,2.94,0,0,1-1.56-.18c-1-.48-1.17-1.73-1.46-2.77-1-3.65-4.19-6.21-6.48-9.22a18.43,18.43,0,0,1-3.94-11.3A14.3,14.3,0,0,1,104.33,62a12,12,0,0,1,11.61-2.12,6.29,6.29,0,0,1,4.12-3,14.42,14.42,0,0,1,5.2-.11,17.59,17.59,0,0,1,5.39,1.36,8.14,8.14,0,0,1,4,3.75c.52,1.11.71,2.36,1.33,3.42s1.7,2.2,2.84,1.75a6.67,6.67,0,0,1-11.18,3.31,11.32,11.32,0,0,1,0,3.58c-.12,1.35-1.7,4-1.58,4a14,14,0,0,0-1.56-.56,1.77,1.77,0,0,0-1.52.45,1.8,1.8,0,0,0-.55,1.49c.11.92.72,1.54.79,2.47a6.77,6.77,0,0,1,0,.78A1.33,1.33,0,0,0,125.1,83.66Z"/><path class="cls-9" d="M141.49,280.31l-4.68,0a.94.94,0,0,1-.55-.11.86.86,0,0,1-.28-.47,35.28,35.28,0,0,1-2.29-10.08c2.24-.44,5.12-3.16,6.59-1.14C141,269.59,142.07,280.31,141.49,280.31Z"/><path class="cls-10" d="M114.52,217.06a168.91,168.91,0,0,0,8.83,43.69c1.31,3.81,2.78,7.66,3,11.69a42.7,42.7,0,0,0,18.55-2.75q-4.37-28.12-7.83-56.38c-.18-1.48-2.49-.6-4-.48l-5.69.47a19,19,0,0,0-5.62,1C119.65,215.21,116.45,218.23,114.52,217.06Z"/><path class="cls-10" d="M135.61,279a7.91,7.91,0,0,1,6.74.11.68.68,0,0,1,.9,0,2,2,0,0,1,.23.8,4.52,4.52,0,0,0,2.9,3c1.33.57,2.79.79,4.13,1.34a4.73,4.73,0,0,1,1.93,1.32,2.37,2.37,0,0,1,.45,2.22c-.49,1.34-2.22,1.64-3.65,1.73l-11.21.68c-1.32.08-2.9,0-3.6-1.09a3.49,3.49,0,0,1-.38-1.84C134,284.69,135.19,281.64,135.61,279Z"/><path class="cls-10" d="M177.44,190.61a8.66,8.66,0,0,1,4,2.46,11.06,11.06,0,0,1,1.93,4.81c1.27,5.74,1.78,12.36,2.51,18.19a2.44,2.44,0,0,1-.24,1.77c-.2.27,0-.37-.31-.22-6.54,3.4-22.47,7.28-22.22-.08.05-1.55-2.28-.81-3.69-1.3-6.07-2.1-12.55,2.31-18.07-1-4.24-2.51-4.45-8.34-2.56-12.37,1.65-3.5,1-9.78,4.34-11C153.23,188.2,166.09,186.76,177.44,190.61Z"/><path class="cls-9" d="M190.06,280.31l-4.68,0a.9.9,0,0,1-.54-.11.86.86,0,0,1-.28-.47,35,35,0,0,1-2.29-10.08c2.23-.44,5.12-3.16,6.59-1.14C189.61,269.59,190.65,280.31,190.06,280.31Z"/><path class="cls-11" d="M129.1,219c-.06,1.73-.19,3.49-.17,5.23s0,3.4.07,5.1c.05,3.45.21,6.89.36,10.33.29,6.81.56,13.62,1,20.42q.39,5.85.76,11.7a1.54,1.54,0,0,0,1.5,1.5,1.5,1.5,0,0,0,1.5-1.5c-.23-6.88-.36-13.78-.75-20.66s-.61-13.8-1.19-20.67l-.49-5.73c-.17-2-.49-4-.75-6-.15-1.08-1.8-.76-1.84.25Z"/><path class="cls-11" d="M152.2,287.1a12.19,12.19,0,0,0-3-10.26,18,18,0,0,0-9.72-5.52,51.84,51.84,0,0,0-12.44-.83,24.94,24.94,0,0,0-6.39.69,12.56,12.56,0,0,0-5,2.74c-2.94,2.62-4.69,6.62-5.69,10.36a2,2,0,0,0,3.85,1.06,23.69,23.69,0,0,1,1.24-4.47c0-.07.2-.47.1-.26.08-.17.16-.34.25-.5.18-.36.38-.7.59-1.05s.39-.61.6-.91c.06-.08.28-.37.24-.33l.09-.1.23-.28a8.48,8.48,0,0,1,3.35-2.51,14.3,14.3,0,0,1,5-.9,61.53,61.53,0,0,1,11,.26,20.84,20.84,0,0,1,5.2,1.4,13.78,13.78,0,0,1,2,1.07,10.47,10.47,0,0,1,1.66,1.28A11.87,11.87,0,0,1,148.4,282l.12.25c-.07-.17,0,0,0,.09s.15.4.21.6a10.38,10.38,0,0,1,.31,1.22c0,.09,0,.17,0,.26,0-.18,0,0,0,.1s0,.42,0,.63,0,.42,0,.63a2.46,2.46,0,0,1,0,.28s0,.38,0,.21a1.67,1.67,0,0,0,1.12,2,1.63,1.63,0,0,0,2-1.13Z"/><path class="cls-12" d="M150.94,292a1.65,1.65,0,0,1,.36.22l-.23-.18a2,2,0,0,1,.36.36l-.18-.24a3.07,3.07,0,0,1,.31.53l-.13-.29a2.34,2.34,0,0,1,.16.59l0-.33a1.84,1.84,0,0,1,0,.47l.05-.34a2.72,2.72,0,0,1-.13.49l.13-.32a2,2,0,0,1-.26.45l.22-.28a2.5,2.5,0,0,1-.33.32l.29-.22a2.34,2.34,0,0,1-.49.27l.36-.15a3.49,3.49,0,0,1-.77.2l.41-.05a3.11,3.11,0,0,1-.61,0l.41.06a2.72,2.72,0,0,1-.54-.15l.38.16a2.75,2.75,0,0,1-.41-.24l.32.24a2.06,2.06,0,0,1-.33-.33l.25.32a2.87,2.87,0,0,1-.28-.48l.16.37a2.26,2.26,0,0,1-.17-.63l.05.42a2.48,2.48,0,0,1,0-.61l-.06.42a2.39,2.39,0,0,1,.15-.54l-.16.37a2,2,0,0,1,.24-.4l-.25.32a1.9,1.9,0,0,1,.38-.37l-.32.24a2.2,2.2,0,0,1,.47-.27l-.37.16a2.31,2.31,0,0,1,.57-.16l-.41.06a2.83,2.83,0,0,1,.65,0l-.41,0a2,2,0,0,1,.47.12l-.38-.15a2,2,0,0,1,.43.24l-.32-.24a2,2,0,0,1,.39.38l-.24-.32a2.62,2.62,0,0,1,.3.51l-.16-.38a1.91,1.91,0,0,1,.12.47l-.05-.43a2.06,2.06,0,0,1,0,.43l.06-.43a1.56,1.56,0,0,1-.1.37l.16-.39a1.22,1.22,0,0,1-.17.29l.26-.33a1.14,1.14,0,0,1-.19.19l.33-.25a1.35,1.35,0,0,1-.33.19l.39-.17a1.56,1.56,0,0,1-.37.1l.44-.06a1.75,1.75,0,0,1-.51,0l.44.06a1.48,1.48,0,0,1-.36-.1l.39.17a1.69,1.69,0,0,1-.29-.17l.34.26-.18-.18.25.33a1.28,1.28,0,0,1-.11-.2l.17.39a.49.49,0,0,1,0-.11l-.17,1.25a1.32,1.32,0,0,1,.12-.2l-.25.33a1.21,1.21,0,0,1,.19-.2l-.32.25.23-.14-.38.17a.85.85,0,0,1,.31-.09l-.42.05h.32l-.42-.05a1.11,1.11,0,0,1,.26.07l-.38-.16.13.07-.78-1.36a1.34,1.34,0,0,1,0,.2l0-.41a1.33,1.33,0,0,1,0,.19l.16-.37-.13.23.24-.32a1.07,1.07,0,0,1-.18.19l.32-.25a.71.71,0,0,1-.22.13l.37-.15-.2.05.41-.05h-.26l.41.05a1,1,0,0,1-.25-.07l.37.16a1,1,0,0,1-.22-.14l.3.24-.18-.18.24.3c0-.05-.07-.11-.11-.17l.16.36,0-.05-.15,1.16a.35.35,0,0,1,.05-.08l-.24.31.1-.1-.3.23.12-.07-.35.15a1.27,1.27,0,0,1,.18-.06l-.39.06h.19l-.39-.05.18.05-.35-.15.12.08-.3-.23a.94.94,0,0,1,.1.1l-.23-.29a.75.75,0,0,1,.07.12l-.14-.34c.08.2.14.4.23.6l-.14-.33a.42.42,0,0,1,0,.16l0-.35V294l0-.33a.29.29,0,0,1,0,.09,1.22,1.22,0,0,0,.43,1.26,1.23,1.23,0,0,0,.57.23,1.3,1.3,0,0,0,.77-.14,1.8,1.8,0,0,0,1-1.54,2,2,0,0,0-1-1.71,2.15,2.15,0,0,0-1.7-.23,1.78,1.78,0,0,0-1.35,2.13,2.46,2.46,0,0,0,1.1,1.39,2.55,2.55,0,0,0,1.81.28,2.34,2.34,0,0,0,1.26-.75,2.59,2.59,0,0,0,.67-1.71,1.89,1.89,0,0,0-1.8-1.72,2.57,2.57,0,0,0-1.26.12,2.87,2.87,0,0,0-1.41,1.09,1.88,1.88,0,0,0,0,2.05,2.73,2.73,0,0,0,1.83,1.26,3.52,3.52,0,0,0,1.41,0c.09,0,.18-.06.27-.09a3.73,3.73,0,0,0,.64-.3,3,3,0,0,0,.94-1,3.18,3.18,0,0,0,.4-1.41,2.54,2.54,0,0,0,0-.55,3.47,3.47,0,0,0-.11-.56,3.43,3.43,0,0,0-.51-1,4.24,4.24,0,0,0-1.05-1,3.47,3.47,0,0,0-1-.45,3.74,3.74,0,0,0-1.2-.11,4.32,4.32,0,0,0-1.5.39,3.41,3.41,0,0,0-1.61,1.57,4.24,4.24,0,0,0-.38,1.38,4.3,4.3,0,0,0,.07,1.13,3.46,3.46,0,0,0,1,1.88,3.64,3.64,0,0,0,2.3,1,3.49,3.49,0,0,0,3.48-2.45,3.59,3.59,0,0,0-1.23-3.74,3.05,3.05,0,0,0-1-.51,1.13,1.13,0,0,0-.87,2.06Z"/><path class="cls-12" d="M110.36,290.65l.1,0-.29.12a1.48,1.48,0,0,1,.36-.1l-.33.05a1.41,1.41,0,0,1,.41,0l-.34-.05a1.76,1.76,0,0,1,.39.12l-.31-.14a1.69,1.69,0,0,1,.32.19l-.27-.21a1.36,1.36,0,0,1,.24.24l-.21-.28a1.69,1.69,0,0,1,.17.29l-.14-.33a1.46,1.46,0,0,1,.09.36l0-.38a1.41,1.41,0,0,1,0,.41l0-.39a1.56,1.56,0,0,1-.1.37l.15-.36a1.51,1.51,0,0,1-.2.35l.24-.31a1.81,1.81,0,0,1-.24.24l.31-.24a1.56,1.56,0,0,1-.28.16l.38-.16a2,2,0,0,1-.35.09l.44-.06a2.25,2.25,0,0,1-.58,0l.44.06a1.74,1.74,0,0,1-.39-.11l.39.17a1.68,1.68,0,0,1-.34-.2l.33.26a1.54,1.54,0,0,1-.25-.26l.26.34a1.69,1.69,0,0,1-.17-.29l.17.39a1.74,1.74,0,0,1-.11-.39l.06.44a2.81,2.81,0,0,1,0-.41l-.06.44a1.62,1.62,0,0,1,.12-.43l-.17.39a1.75,1.75,0,0,1,.2-.35l-.26.33.26-.26-.33.26a1.5,1.5,0,0,1,.32-.19l-.4.17a1.91,1.91,0,0,1,.41-.11l-.45.06h.46l-.45-.06a1.69,1.69,0,0,1,.44.12l-.4-.17a2,2,0,0,1,.37.21l-.34-.26a1.79,1.79,0,0,1,.28.27l-.26-.33a1.2,1.2,0,0,1,.16.27l-.17-.39a1.12,1.12,0,0,1,.08.26l-.06-.44a1.13,1.13,0,0,1,0,.26l.06-.45a1,1,0,0,1-.07.24l.17-.4a1,1,0,0,1-.15.25l.26-.33a1.81,1.81,0,0,1-.24.24l.34-.26a1.87,1.87,0,0,1-.31.17l.4-.17a1.33,1.33,0,0,1-.34.1L111,290a1.06,1.06,0,0,1-.31,0l.44.06a1.14,1.14,0,0,1-.25-.06l.4.16a.72.72,0,0,1-.21-.12l.34.26a.86.86,0,0,1-.14-.13l.26.34a1,1,0,0,1-.13-.23l.16.4c0-.06,0-.12,0-.18l.06.44a.81.81,0,0,1,0-.22l-.06.44a1.66,1.66,0,0,1,.06-.21l-.17.39.07-.11-.26.33.09-.09-.33.26a1,1,0,0,1,.17-.1l-.39.17a.61.61,0,0,1,.18,0l-.42.06a.43.43,0,0,1,.16,0l-.42-.06a2.85,2.85,0,0,0,.51.07,2.47,2.47,0,0,0,.48-.07l-.4,0a2.22,2.22,0,0,0,.44-.06h-.78l.09,0-.33-.14,0,0a1.38,1.38,0,0,0,2.07-1.19,1.68,1.68,0,0,0-.23-.88l.2.74a1.54,1.54,0,0,0-.23-.84,1.71,1.71,0,0,0-1-.77,2.29,2.29,0,0,0-1.19,0,2.17,2.17,0,0,0-1.62,1.59,2.51,2.51,0,0,0,2.69,3,3.19,3.19,0,0,0,1.27-.36,2.87,2.87,0,0,0,1.51-2.56,2.84,2.84,0,0,0-1-2,3.31,3.31,0,0,0-3.27-.72,2.92,2.92,0,0,0-.74.34,3.39,3.39,0,0,0-.89.88,3.29,3.29,0,0,0-.56,1.63,2.81,2.81,0,0,0,0,.41,4.55,4.55,0,0,0,.09.63,3.13,3.13,0,0,0,.24.6,2.84,2.84,0,0,0,1.12,1.23,3.42,3.42,0,0,0,1.59.47,2.87,2.87,0,0,0,1.61-.43,3.05,3.05,0,0,0,.61-.52,3.26,3.26,0,0,0,.59-1,3.09,3.09,0,0,0,.09-1.73,2.67,2.67,0,0,0-.84-1.4,3.34,3.34,0,0,0-1-.56,2.48,2.48,0,0,0-.82-.14,2.59,2.59,0,0,0-1.55.43,1.36,1.36,0,0,0-.56.73,1.28,1.28,0,0,0,.12.94,1.25,1.25,0,0,0,1.67.44Z"/><path class="cls-11" d="M132,273.35c-.14.09-.3,0-.46,0a2,2,0,0,0-.59.09,3.45,3.45,0,0,0-1.06.46,8.71,8.71,0,0,0-2,1.63,14.06,14.06,0,0,0-2.73,4.33,23.92,23.92,0,0,0-1.45,11.7,1.35,1.35,0,0,0,1.32,1.32,1.33,1.33,0,0,0,1.32-1.32A21.86,21.86,0,0,1,127.56,281a20.18,20.18,0,0,1,2.19-3.79c.42-.6.91-1.15,1.36-1.72a9,9,0,0,0,.66-.84c.09-.17.3-.83.46-.91s0-.56-.23-.39Z"/><path class="cls-12" d="M125.49,295h0a1.36,1.36,0,0,0-.67,1.17.15.15,0,0,1,0,.07l0-.37a.83.83,0,0,1-.06.21l.15-.35a.76.76,0,0,1-.12.19l.24-.31v0l.31-.24a1.9,1.9,0,0,0-.62.64.42.42,0,0,1-.09.14l.25-.32-.17.17.32-.25a1,1,0,0,1-.17.1l.39-.16-.2,0,.43-.06h-.19l.43.06a1,1,0,0,1-.23-.06l.39.16a.82.82,0,0,1-.2-.12l.33.26-.2-.2.26.34-.31-.41.26.34a2,2,0,0,1-.14-.25l.17.4A.86.86,0,0,1,126,296l.06.44a1,1,0,0,1,0-.24l-.06.44a.9.9,0,0,1,.06-.22l-.17.4a1.16,1.16,0,0,1,.14-.24l-.26.34a.88.88,0,0,1,.22-.21l-.34.26a1.2,1.2,0,0,1,.27-.16l-.4.17.3-.09-.44.06h.31l-.45-.06a1.29,1.29,0,0,1,.28.08l-.4-.17a1.64,1.64,0,0,1,.29.16l-.34-.26a1.75,1.75,0,0,1,.23.24l-.26-.34a2.14,2.14,0,0,1,.2.32l-.17-.4a1.91,1.91,0,0,1,.11.41l-.06-.45a1.93,1.93,0,0,1,0,.34l.06-.45a1.4,1.4,0,0,1-.1.35l.17-.4a1.61,1.61,0,0,1-.19.31l.26-.34a1.54,1.54,0,0,1-.28.29l.34-.26a1.75,1.75,0,0,1-.35.2l.4-.17a1.54,1.54,0,0,1-.35.1l.45-.06a1.31,1.31,0,0,1-.28,0l.44.06a1.57,1.57,0,0,1-.29-.08l.41.17a1.23,1.23,0,0,1-.25-.14l.34.26a1.36,1.36,0,0,1-.24-.24l.26.34a1.92,1.92,0,0,1-.18-.31l.17.4a2,2,0,0,1-.16-.53l.06.43a1.22,1.22,0,0,1,0-.27l-.06.43a.83.83,0,0,1,.07-.27l-.16.37a.75.75,0,0,1,.07-.12l-.24.31.16-.16-.31.24a.72.72,0,0,1,.21-.12l-.37.15a1.11,1.11,0,0,1,.3-.08l-.4.05a1.38,1.38,0,0,1,.35,0l-.41-.06a1.82,1.82,0,0,1,.38.11l-.37-.16a1.92,1.92,0,0,1,.31.18l-.31-.24a1.25,1.25,0,0,1,.23.23l-.24-.31a1.28,1.28,0,0,1,.15.25l-.16-.37a.84.84,0,0,1,.07.26l0-.4a1.22,1.22,0,0,1,0,.27l.06-.41a1.33,1.33,0,0,1-.1.34l.16-.37a1.92,1.92,0,0,1-.18.31l.24-.31a1.77,1.77,0,0,1-.31.3l.31-.24a2.39,2.39,0,0,1-.34.21l.37-.16a1.82,1.82,0,0,1-.38.11l.41-.06a1.45,1.45,0,0,1-.36,0l.41,0a1.25,1.25,0,0,1-.32-.08l.37.15a1.11,1.11,0,0,1-.3-.17l.31.24c-.17-.13-.32-.28-.5-.41l.31.24-.17-.17.23.3a1.08,1.08,0,0,1-.11-.18l.15.35a1.21,1.21,0,0,1,0-.18l0,.37a.89.89,0,0,1,0-.23l0,.36a2.1,2.1,0,0,1,.06-.24,3.93,3.93,0,0,0,.06-.48l0,.3a.29.29,0,0,1,0-.09l-.1.24,0-.07a.94.94,0,0,0-.15-1.13,1.49,1.49,0,0,0-1-.4,1.69,1.69,0,0,0-1.37.9,2.18,2.18,0,0,0-.25,1.35,2,2,0,0,0,.62,1.3,2.91,2.91,0,0,0,1.13.65,2.68,2.68,0,0,0,.63.11h.3a3.29,3.29,0,0,0,2-.85,1.24,1.24,0,0,0,.19-.21,2.77,2.77,0,0,0,.38-.52,3,3,0,0,0,.36-1.2,2.44,2.44,0,0,0-.09-.89,2.81,2.81,0,0,0-.57-1,3.05,3.05,0,0,0-.61-.52,3.21,3.21,0,0,0-1.57-.46,4,4,0,0,0-.59.07l-.21,0a2.77,2.77,0,0,0-1,.59c-.06.05-.1.11-.15.16a3.08,3.08,0,0,0-.37.5,2.56,2.56,0,0,0-.32,1,3,3,0,0,0,0,.43,2.45,2.45,0,0,0,.1.66,3.22,3.22,0,0,0,1.3,1.69,3.11,3.11,0,0,0,.59.26.9.9,0,0,0,.27.07,3.17,3.17,0,0,0,1.37,0,4,4,0,0,0,.6-.24l.27-.16a3.69,3.69,0,0,0,.94-.95,1.4,1.4,0,0,0,.15-.24,4.35,4.35,0,0,0,.25-.63,3.21,3.21,0,0,0,0-1.38,3,3,0,0,0-.33-.92,3.15,3.15,0,0,0-.41-.55,1,1,0,0,0-.2-.21,2.91,2.91,0,0,0-1.2-.67,3,3,0,0,0-1.36,0l-.25.07a2.91,2.91,0,0,0-.62.29,3,3,0,0,0-.94.92,2.75,2.75,0,0,0-.4,1.28,2.65,2.65,0,0,0,.31,1.32,2.58,2.58,0,0,0,.9,1,2.61,2.61,0,0,0,1.27.41,1.7,1.7,0,0,0,.45,0,2.32,2.32,0,0,0,.81-.26,2.47,2.47,0,0,0,.88-.82l.12-.2a3.38,3.38,0,0,0,.18-.44,1.68,1.68,0,0,0,0-.89l.06.41a2.27,2.27,0,0,0-.36-1.24,1.42,1.42,0,0,0-.65-.56,1.4,1.4,0,0,0-.88-.07.92.92,0,0,0-.32.14Z"/><path class="cls-13" d="M138.09,188.8c6.95.42,13.27.72,17.75-4.61,4.13-4.91,1.67-12.17,1.61-18.59,4.72-.34,10.25-1.19,12.44-5.38,1.62-3.09.73-6.85-.23-10.21-3.27-11.45-3.19-24.42-11.68-32.78-7.26-7.15-17-11-26.55-14.71-4.51-1.75-9.31-1-14.14-1a13.43,13.43,0,0,0-4.56.64,14.29,14.29,0,0,0-4.78,3.55L97.7,115.87c-3,2.93-6,6-7.54,9.87-1.2,3.06-1.36,6.42-1.48,9.71-.37,10.2-.73,9-.86,19.19a20.16,20.16,0,0,0,.87,7.63c2.32,6,9.73,19.79,16.06,21.07a203.27,203.27,0,0,0,29.71,3.73C136.17,187.16,136.38,188.7,138.09,188.8Z"/><path class="cls-14" d="M153.24,205.38s1.67-.84,1.94-3.89-1.38-44.7-6.66-54.13-47.19-10.55-53.58-1.67-1.11,52.47-.28,57.19,4.72,3.88,4.72,3.88-3-.27-3.61,2.23-.91,10.55.48,11.66,55,1.46,58.09.07S157.13,205.1,153.24,205.38Z"/><path class="cls-10" d="M163.09,217.06a169.33,169.33,0,0,0,8.83,43.69c1.31,3.81,2.78,7.66,3,11.69a42.68,42.68,0,0,0,18.55-2.75q-4.37-28.12-7.82-56.38c-.18-1.48-2.49-.6-4-.48l-5.69.47a19.08,19.08,0,0,0-5.63,1C168.23,215.21,165,218.23,163.09,217.06Z"/><path class="cls-10" d="M184.18,279a7.94,7.94,0,0,1,6.75.11.67.67,0,0,1,.89,0,2.13,2.13,0,0,1,.24.8,4.53,4.53,0,0,0,2.89,3c1.34.57,2.8.79,4.14,1.34a4.7,4.7,0,0,1,1.92,1.32,2.37,2.37,0,0,1,.46,2.22c-.49,1.34-2.23,1.64-3.66,1.73l-11.2.68c-1.32.08-2.91,0-3.61-1.09a3.59,3.59,0,0,1-.38-1.84C182.57,284.69,183.76,281.64,184.18,279Z"/><path class="cls-15" d="M153.53,128.2c-2.3,3.85-2.12,8.54-1.1,12.76.58,2.45,1.42,4.82,2.16,7.22a49.85,49.85,0,0,1,1.71,7.42,41.65,41.65,0,0,1,.43,4.31c0,.72.06,1.43.07,2.15a21.46,21.46,0,0,0,0,2.27c0,.31.52.44.58.08a16.59,16.59,0,0,0,.08-3.66c-.05-1.24-.14-2.47-.29-3.7a45.75,45.75,0,0,0-1.42-7.23c-1.31-4.63-3.34-9.13-3.52-14a13.65,13.65,0,0,1,1.64-7.42.2.2,0,0,0-.35-.2Z"/><path class="cls-15" d="M154.5,126.79a8.41,8.41,0,0,1,3.11-2.93c.18-.1,0-.36-.16-.27a7.52,7.52,0,0,0-3.24,3c-.12.19.18.36.29.17Z"/><path class="cls-15" d="M130.64,105.64c7.13,2.15,14.32,5,20,9.87.79.68,1.56,1.39,2.28,2.14s1.35,1.61,2.08,2.35a.22.22,0,0,0,.34-.26,13.25,13.25,0,0,0-1.73-2.09,26.92,26.92,0,0,0-2-2,35.83,35.83,0,0,0-4.42-3.34,52.79,52.79,0,0,0-10.22-5c-2.06-.76-4.15-1.42-6.26-2-.2-.06-.29.26-.09.32Z"/><path class="cls-15" d="M112.6,105.8c2.33-.17,4.66-.31,7-.47l3.44-.22a13.44,13.44,0,0,0,3.36-.3.17.17,0,0,0,0-.32,12.15,12.15,0,0,0-3.24.09c-1.19.07-2.37.14-3.56.23-2.33.16-4.66.37-7,.58-.26,0-.27.43,0,.41Z"/><path class="cls-15" d="M159.27,123.32a5.82,5.82,0,0,1,1.18,0,3.41,3.41,0,0,1,.54.1c.2,0,.45.14.63,0a.2.2,0,0,0,0-.18c-.06-.24-.36-.29-.55-.34s-.42-.08-.63-.11a5.52,5.52,0,0,0-1.22,0,.29.29,0,0,0-.28.28.3.3,0,0,0,.28.29Z"/><path class="cls-16" d="M100.23,206.72c10.7-.13,21.4-.54,32.09-.85,3-.08,6.1-.06,9.12-.33a.16.16,0,0,0,0-.32c-2.66-.09-5.33.07-8,.15l-8.12.22-16,.46c-3,.09-6.08.16-9.12.3a.19.19,0,0,0,0,.37Z"/><path class="cls-16" d="M144.33,205.27c1.19,0,2.38-.06,3.57-.05l1.79.05a6,6,0,0,0,1.69-.06c.15,0,.12-.24,0-.29a5.39,5.39,0,0,0-1.69-.23c-.6,0-1.19,0-1.79-.05-1.19,0-2.38,0-3.57.05-.38,0-.38.6,0,.58Z"/><path class="cls-16" d="M129.08,221.72h1.23a.27.27,0,0,0,.28-.27.28.28,0,0,0-.28-.28h-1.23a.28.28,0,1,0,0,.55Z"/><path class="cls-16" d="M130.49,273.54l.92-.83a8,8,0,0,0,.88-.87.2.2,0,0,0,0-.24.17.17,0,0,0-.23-.05c-.19.12-.35.25-.52.38l-.49.4-.95.83a.27.27,0,0,0,.38.38Z"/><path class="cls-12" d="M110.48,290.47a.74.74,0,0,0-1,.48.86.86,0,0,0,.65,1,1.05,1.05,0,0,0,1.16-.51,1.2,1.2,0,0,0,0-1.31.78.78,0,0,0-.65-.34c-.27,0-.59.14-.62.44l0-.11a.54.54,0,0,0-.08.35.18.18,0,0,0,.16.18.18.18,0,0,0,.2-.13l0-.06s0,0,0,0,0-.05,0,0l0,0-.1.05a.88.88,0,0,0,.2-.09l0,0c-.06,0,0,0,0,0h0s.07,0,0,0h.09l.05,0h0l0,0s0,0,0,0l0,.05,0,0c0-.05,0,0,0,0a.56.56,0,0,1,0,.08s0-.05,0,0v.05a.28.28,0,0,1,0,.13c0-.07,0,0,0,.05s0,.07,0,.1,0-.05,0,0a.09.09,0,0,0,0,0l0,.13s0,.05,0,0l0,.05a.41.41,0,0,1,0,.09l0,0s0,0,0,0l-.09.09s0,0,0,0l0,0-.06,0h0l-.11,0h-.12s0,0,0,0l-.1,0,0,0c.06,0,0,0,0,0l-.09-.05s0,0,0,0l0,0,0,0s0,0,0,0l0,0c0-.05,0,0,0,0s0,0,0-.05,0-.07,0,0v-.08s0,0,0,0a.06.06,0,0,1,0,0c0-.06,0,0,0,0l0,0s0-.07,0,0l.07-.07,0,0h0l0,0h0l.06,0h0l.08,0a.2.2,0,0,0,.24-.11.21.21,0,0,0-.09-.25Z"/><path class="cls-12" d="M124.54,296.52a1.08,1.08,0,0,0,.1,1.16,1,1,0,0,0,.52.38.86.86,0,0,0,.65-.06,1,1,0,0,0,.58-1.06.8.8,0,0,0-.27-.5.91.91,0,0,0-.54-.21,1,1,0,0,0-.58.12.58.58,0,0,0-.23.21.71.71,0,0,0-.1.31c0,.16.22.2.29.08l0-.05h0l0,0,0,0,0,0s0,0,0,0l.07-.05,0,0s0,0,0,0l0,0,0,0h0s0,0,0,0h.07l.09,0h.21l.09,0h0l.05,0,0,0s0,0,0,0l.06.07s0,0,0,0h0l0,.05s0,.05,0,0h0a.08.08,0,0,1,0,0,.09.09,0,0,1,0,.05s0-.05,0,0v.13s0-.05,0,0v0s0,0,0,.06v0c0,.06,0,0,0,0l0,.1,0,.05,0,0v0s-.05.07-.07.09l0,0s0,0,0,0l-.09.06h0l-.06,0-.05,0h-.17l-.06,0h0l-.1-.06s0,0,0,0l0,0,0-.05h0s0,0,0,0l-.07-.1,0-.06s0,0,0,0,0,0,0,0a.49.49,0,0,1,0-.11s0-.05,0-.07v-.15l0-.06,0-.06s0,0,0,0l0,0a.23.23,0,0,0-.08-.31.24.24,0,0,0-.31.08Z"/><path class="cls-12" d="M151.13,292.2a1.07,1.07,0,0,0-1,.63,1,1,0,0,0-.08.68.9.9,0,0,0,.36.53,1.11,1.11,0,0,0,1.1.09.87.87,0,0,0,.45-1.06,1.1,1.1,0,0,0-.43-.59.81.81,0,0,0-.3-.13.65.65,0,0,0-.2,0,.45.45,0,0,0-.29.12.25.25,0,0,0-.07.27.26.26,0,0,0,.19.19.45.45,0,0,0,.16,0h0s0,0,0,0H151l.09,0c-.08,0,0,0,0,0l0,0,0,0,0,0h0l.07.08,0,0,0,0,0,.05a.41.41,0,0,0,.05.09c0,.06,0-.06,0,0l0,0s0,0,0,.06v0s0,0,0,0,0,.08,0,.1v0s0,0,0,0a.14.14,0,0,1,0,.06s0,0,0,0,0-.06,0,0v0a.08.08,0,0,1,0,0v0l0,0-.06.06,0,0s.06-.05,0,0l0,0,0,0s-.07,0,0,0l-.09,0h-.2s.1,0,0,0h0l-.08,0c-.06,0,.06,0,0,0l-.05,0-.08-.05h0l0,0,0,0,0,0s0,.06,0,0l-.05-.08s0,.07,0,0,0,0,0,0,0,0,0-.05v-.1s0,0,0,0v0a.13.13,0,0,0,0-.06s0,0,0,0a0,0,0,0,0,0,0s0,.06,0,0l.06-.11,0,0s0,0,0,0l.08-.09,0,0,0,0,0,0,.05,0,0,0,0,0a.42.42,0,0,0,.12,0h.07a.29.29,0,1,0,0-.57Z"/><path class="cls-17" d="M195.18,88.71c.36,0,.59.39.52.88s-.41.88-.76.88-.59-.4-.52-.88S194.83,88.71,195.18,88.71Z"/><path class="cls-17" d="M193.05,89.59c-.07.48-.41.88-.76.88s-.59-.4-.52-.88.41-.88.76-.88S193.12,89.1,193.05,89.59Z"/><path class="cls-17" d="M190.4,89.59c-.07.48-.41.88-.76.88s-.59-.4-.52-.88.41-.88.77-.88S190.47,89.1,190.4,89.59Z"/><polyline class="cls-18" points="180.34 82.76 177.63 85.88 179.46 89"/><polyline class="cls-18" points="186.04 82.76 187.87 85.88 185.17 89"/><line class="cls-18" x1="181.28" y1="89.53" x2="184.03" y2="82.76"/><line class="cls-19" x1="176.36" y1="94.9" x2="252.01" y2="94.9"/><line class="cls-20" x1="175.82" y1="98.77" x2="221.26" y2="98.77"/><line class="cls-21" x1="224.8" y1="98.77" x2="251.47" y2="98.77"/><line class="cls-21" x1="250.87" y1="103.02" x2="213.46" y2="103.02"/><line class="cls-19" x1="229.88" y1="82.76" x2="253.9" y2="82.76"/><line class="cls-21" x1="226.69" y1="86.63" x2="253.35" y2="86.63"/><line class="cls-21" x1="252.76" y1="90.88" x2="215.35" y2="90.88"/><line class="cls-20" x1="210.42" y1="103.02" x2="205.97" y2="103.02"/><line class="cls-20" x1="202.43" y1="103.02" x2="197.97" y2="103.02"/><line class="cls-20" x1="194.43" y1="103.02" x2="189.97" y2="103.02"/><line class="cls-20" x1="186.43" y1="103.02" x2="181.98" y2="103.02"/><line class="cls-19" x1="250.14" y1="108.18" x2="179.83" y2="108.18"/><line class="cls-20" x1="176.83" y1="103.02" x2="175.22" y2="103.02"/><line class="cls-20" x1="176.1" y1="108.18" x2="174.5" y2="108.18"/><line class="cls-20" x1="175.38" y1="113.34" x2="173.77" y2="113.34"/><line class="cls-20" x1="174.65" y1="118.51" x2="173.05" y2="118.51"/><line class="cls-22" x1="180.36" y1="113.34" x2="199.7" y2="113.34"/><line class="cls-22" x1="179.62" y1="118.63" x2="205.27" y2="118.63"/><line class="cls-21" x1="178.88" y1="123.92" x2="213.66" y2="123.92"/><line class="cls-20" x1="201.74" y1="113.34" x2="249.42" y2="113.34"/><line class="cls-20" x1="207.11" y1="118.63" x2="248.68" y2="118.63"/><line class="cls-21" x1="215.8" y1="123.92" x2="247.93" y2="123.92"/><rect class="cls-23" x="129.63" y="25.41" width="54.52" height="23.34" rx="7.62" transform="translate(314.08 72.86) rotate(179.53)"/><path class="cls-23" d="M149,47.69l-8.2,6.13a.46.46,0,0,1-.72-.44l1.25-7.68Z"/><text class="cls-24" transform="translate(141.71 40.03)">{ }</text><text class="cls-25" transform="translate(157.79 41.43) scale(0.76 1)">&lt; / &gt;</text><rect class="cls-1" x="205.42" y="195.76" width="68.34"/><rect class="cls-1" x="41.5" y="98.78" width="54.31"/><rect class="cls-1" x="43.91" y="247.87" width="30.57"/><rect class="cls-1" x="0.5" y="247.87" width="30.57"/><rect class="cls-1" x="153.71" y="12.54" width="68.34"/></g></g></svg>